<?xml version="1.0" encoding="UTF-8" standalone="no"?>
<!-- Created with Inkscape (http://www.inkscape.org/) -->
<svg xmlns:dc="http://purl.org/dc/elements/1.1/" xmlns:cc="http://creativecommons.org/ns#" xmlns:rdf="http://www.w3.org/1999/02/22-rdf-syntax-ns#" xmlns:svg="http://www.w3.org/2000/svg" xmlns="http://www.w3.org/2000/svg" xmlns:sodipodi="http://sodipodi.sourceforge.net/DTD/sodipodi-0.dtd" xmlns:inkscape="http://www.inkscape.org/namespaces/inkscape" id="svg2" version="1.1" inkscape:version="0.91 r13725" xml:space="preserve" width="187.16539" height="76.682503" viewBox="0 0 187.16539 76.682499" sodipodi:docname="Caisse Nationale d'Assurance Vieillesse.svg"><metadata id="metadata8"><rdf:RDF><cc:Work rdf:about=""><dc:format>image/svg+xml</dc:format><dc:type rdf:resource="http://purl.org/dc/dcmitype/StillImage"/><dc:title/></cc:Work></rdf:RDF></metadata><defs id="defs6"/><sodipodi:namedview pagecolor="#ffffff" bordercolor="#666666" borderopacity="1" objecttolerance="10" gridtolerance="10" guidetolerance="10" inkscape:pageopacity="0" inkscape:pageshadow="2" inkscape:window-width="1920" inkscape:window-height="1017" id="namedview4" showgrid="false" fit-margin-left="5" fit-margin-top="5" fit-margin-bottom="5" fit-margin-right="5" inkscape:zoom="2.5371819" inkscape:cx="86.605097" inkscape:cy="53.666228" inkscape:window-x="-8" inkscape:window-y="-8" inkscape:window-maximized="1" inkscape:current-layer="g10"/><g id="g10" inkscape:groupmode="layer" inkscape:label="demande-retraite-avant-60" transform="matrix(1.25,0,0,-1.25,-30.433122,951.063)"><g id="g6195"><path inkscape:connector-curvature="0" id="path930" style="fill:#0071b9;fill-opacity:1;fill-rule:nonzero;stroke:none" d="m 79.0835,709.9436 c -0.206,-1.164 -1.022,-2.227 -1.766,-2.227 l -1.37,0 c 0,0 0.299,1.606 0.4,2.21 0.24,1.281 1.039,2.082 1.748,2.082 0.676,0 1.251,-0.68 0.988,-2.065 m 2.635,-0.017 c 0.277,1.521 -0.746,3.005 -3.463,3.005 -2.514,0 -4.402,-2.265 -4.838,-4.61 -0.465,-2.549 0.938,-4.616 3.14,-4.616 l 3.481,0 0.156,0.863 -3.467,0 c -0.745,0 -1.229,0.721 -1.073,1.584 l 0.137,0.723 1.372,0 c 2.753,0 4.258,1.504 4.555,3.051"/><path inkscape:connector-curvature="0" id="path934" style="fill:#0071b9;fill-opacity:1;fill-rule:nonzero;stroke:none" d="m 87.7989,711.8284 -1.734,0 -0.986,-5.415 c -0.207,-1.104 0.398,-2.004 1.353,-2.004 l -0.156,-0.905 c -2.394,0 -3.97,2.025 -3.499,4.514 l 0.586,3.209 c 0.087,0.502 -0.19,0.926 -0.623,0.926 l 0.122,0.578 0.777,0 0.573,3.148 2.842,1.346 -0.814,-4.494 1.732,0 -0.173,-0.903 z"/><path inkscape:connector-curvature="0" id="path938" style="fill:#0071b9;fill-opacity:1;fill-rule:nonzero;stroke:none" d="m 94.2085,710.2659 -0.605,0 c 0.122,0.702 -0.26,1.284 -0.905,1.284 -0.619,0 -1.224,-0.543 -1.365,-1.305 l -1.196,-6.54 -2.596,0 1.367,7.503 c 0.105,0.502 -0.172,0.904 -0.607,0.904 l 0.12,0.619 3.362,0 -0.12,-0.601 c 0.572,0.543 1.49,0.824 2.252,0.824 0.482,0 1.074,-0.102 1.351,-0.242 l -1.058,-2.446 z"/><path inkscape:connector-curvature="0" id="path942" style="fill:#0071b9;fill-opacity:1;fill-rule:nonzero;stroke:none" d="m 100.2046,711.8284 c 0,0 -0.865,-4.771 -1.023,-5.635 -0.158,-0.863 -0.901,-1.586 -1.647,-1.586 -0.743,0 -1.196,0.723 -1.036,1.586 0.152,0.864 0.747,4.052 0.747,4.052 0.152,0.863 0.864,1.583 1.606,1.583 l 1.353,0 z m 2.79,0.903 -4.039,0 c -2.198,0 -4.312,-1.865 -4.778,-4.41 -0.469,-2.549 0.933,-4.677 3.131,-4.677 0.645,0 1.35,0.342 1.63,0.622 l -0.105,-0.561 3.275,0 0.108,0.602 c -0.435,0 -0.698,0.402 -0.611,0.902 l 1.389,7.522 z"/><path inkscape:connector-curvature="0" id="path946" style="fill:#0071b9;fill-opacity:1;fill-rule:nonzero;stroke:none" d="m 105.835,703.7053 -2.598,0 1.384,7.522 c 0.087,0.502 -0.173,0.902 -0.607,0.902 l 0.122,0.602 3.363,0 -1.664,-9.026 z m 1.923,10.51 -2.601,0 0.556,3.01 2.598,0 -0.553,-3.01 z"/><path inkscape:connector-curvature="0" id="path950" style="fill:#0071b9;fill-opacity:1;fill-rule:nonzero;stroke:none" d="m 113.5782,711.8284 -1.733,0 -0.986,-5.415 c -0.208,-1.104 0.397,-2.004 1.35,-2.004 l -0.154,-0.905 c -2.392,0 -3.97,2.025 -3.501,4.514 l 0.587,3.209 c 0.088,0.502 -0.187,0.926 -0.622,0.926 l 0.123,0.578 0.777,0 0.574,3.148 2.841,1.346 -0.816,-4.494 1.733,0 -0.173,-0.903 z"/><path inkscape:connector-curvature="0" id="path954" style="fill:#0071b9;fill-opacity:1;fill-rule:nonzero;stroke:none" d="m 119.21,709.9436 c -0.206,-1.164 -1.023,-2.227 -1.769,-2.227 l -1.366,0 c 0,0 0.296,1.606 0.396,2.21 0.245,1.281 1.04,2.082 1.753,2.082 0.672,0 1.246,-0.68 0.986,-2.065 m 2.631,-0.017 c 0.279,1.521 -0.742,3.005 -3.462,3.005 -2.515,0 -4.402,-2.265 -4.834,-4.61 -0.468,-2.549 0.934,-4.616 3.136,-4.616 l 3.48,0 0.156,0.863 -3.466,0 c -0.743,0 -1.226,0.721 -1.072,1.584 l 0.139,0.723 1.368,0 c 2.753,0 4.262,1.504 4.555,3.051"/><path inkscape:connector-curvature="0" id="path958" style="fill:#0071b9;fill-opacity:1;fill-rule:nonzero;stroke:none" d="m 70.0494,710.4265 1.426,-5.596 c 0.078,-0.321 0.319,-0.519 0.681,-0.519 l -0.121,-0.604 -3.431,0 -1.925,7.504 0.703,0 c 1.324,0 2.667,1.143 2.949,2.547 0.319,1.443 -0.522,2.586 -1.846,2.586 l -1.444,0 -2.69,-12.637 -3.009,0 2.568,12.035 c 0.102,0.504 -0.219,0.885 -0.722,0.885 l 0.121,0.601 7.282,0 c 1.905,0 3.149,-1.564 2.728,-3.47 -0.34,-1.603 -1.705,-2.969 -3.27,-3.332"/><path inkscape:connector-curvature="0" id="path962" style="fill:#0071b9;fill-opacity:1;fill-rule:nonzero;stroke:none" d="m 87.7622,736.2957 -4.544,-5.369 -0.107,-0.5 c 0.434,0 0.697,-0.33 0.59,-0.744 l -1.401,-6.364 c -0.471,-2.054 1.108,-3.726 3.5,-3.726 l 0.153,0.744 c -0.954,0 -1.559,0.746 -1.351,1.658 l 3.16,14.301 z m 2.668,0.076 -0.806,-4.305 1.777,0 0.805,4.305 -1.776,0 z"/><path inkscape:connector-curvature="0" id="path966" style="fill:#0071b9;fill-opacity:1;fill-rule:nonzero;stroke:none" d="m 109.316,726.823 -0.535,0 c 0.14,0.734 -0.163,1.426 -0.895,1.426 -0.857,0 -1.304,-0.692 -1.392,-1.182 -0.107,-0.592 0.034,-0.814 0.301,-1.06 l 1.198,-1.08 c 0.698,-0.653 0.965,-1.325 0.75,-2.446 -0.232,-1.263 -1.571,-2.688 -3.841,-2.688 l -2.125,0 0.176,0.917 1.325,0 c 0.804,0 1.535,0.609 1.679,1.426 0.089,0.468 -0.052,0.855 -0.249,1.058 l -1.235,1.121 c -0.714,0.653 -0.873,1.713 -0.641,2.528 0.356,1.324 1.981,2.324 3.982,2.324 0.716,0 1.377,-0.143 1.86,-0.428 l -0.358,-1.916 z"/><path inkscape:connector-curvature="0" id="path970" style="fill:#0071b9;fill-opacity:1;fill-rule:nonzero;stroke:none" d="m 116.458,726.823 -0.535,0 c 0.142,0.734 -0.162,1.426 -0.894,1.426 -0.856,0 -1.306,-0.692 -1.394,-1.182 -0.105,-0.592 0.036,-0.814 0.302,-1.06 l 1.199,-1.08 c 0.697,-0.653 0.964,-1.325 0.749,-2.446 -0.231,-1.263 -1.573,-2.688 -3.839,-2.688 l -2.129,0 0.18,0.917 1.324,0 c 0.803,0 1.535,0.609 1.677,1.426 0.092,0.468 -0.05,0.855 -0.247,1.058 l -1.237,1.121 c -0.714,0.653 -0.872,1.713 -0.642,2.528 0.357,1.324 1.984,2.324 3.984,2.324 0.719,0 1.378,-0.143 1.86,-0.428 l -0.358,-1.916 z"/><path inkscape:connector-curvature="0" id="path974" style="fill:#0071b9;fill-opacity:1;fill-rule:nonzero;stroke:none" d="m 125.5596,721.3015 c -0.105,-0.5 0.176,-0.9 0.615,-0.9 l -0.107,-0.6 -3.322,0 0.106,0.557 c -0.282,-0.28 -1.003,-0.619 -1.651,-0.619 -0.463,0 -0.883,0.109 -1.266,0.277 -1.467,0.64 -2.293,2.373 -1.917,4.394 l 0.504,2.907 c 0.089,0.5 -0.175,0.902 -0.614,0.902 l 0.121,0.6 3.557,0 -1.213,-6.534 c -0.158,-0.863 0.3,-1.584 1.054,-1.584 0.758,0 1.512,0.721 1.672,1.584 l 1.223,6.534 2.648,0 -1.41,-7.518 z"/><path inkscape:connector-curvature="0" id="path978" style="fill:#0071b9;fill-opacity:1;fill-rule:nonzero;stroke:none" d="m 134.583,726.3523 -0.605,0 c 0.121,0.703 -0.261,1.283 -0.901,1.283 -0.623,0 -1.23,-0.541 -1.368,-1.304 l -1.195,-6.538 -2.598,0 1.367,7.502 c 0.105,0.5 -0.172,0.903 -0.606,0.903 l 0.118,0.621 3.364,0 -0.122,-0.602 c 0.573,0.543 1.491,0.823 2.256,0.823 0.482,0 1.071,-0.1 1.349,-0.243 l -1.059,-2.445 z"/><path inkscape:connector-curvature="0" id="path982" style="fill:#0071b9;fill-opacity:1;fill-rule:nonzero;stroke:none" d="m 140.5816,727.9168 c 0,0 -0.868,-4.774 -1.024,-5.635 -0.158,-0.863 -0.9,-1.586 -1.647,-1.586 -0.743,0 -1.194,0.723 -1.036,1.586 0.153,0.861 0.746,4.049 0.746,4.049 0.153,0.863 0.862,1.586 1.608,1.586 l 1.353,0 z m 2.789,0.902 -4.038,0 c -2.201,0 -4.313,-1.865 -4.782,-4.412 -0.467,-2.547 0.935,-4.674 3.138,-4.674 0.642,0 1.348,0.342 1.625,0.619 l -0.102,-0.559 3.274,0 0.105,0.602 c -0.431,0 -0.696,0.403 -0.607,0.901 l 1.387,7.523 z"/><path inkscape:connector-curvature="0" id="path986" style="fill:#0071b9;fill-opacity:1;fill-rule:nonzero;stroke:none" d="m 153.1187,719.7932 -3.426,0 c 0,0 1.053,5.715 1.212,6.579 0.159,0.861 -0.351,1.584 -1.106,1.584 -0.756,0 -1.565,-0.723 -1.722,-1.584 -0.161,-0.864 -1.214,-6.579 -1.214,-6.579 l -2.546,0 1.388,7.522 c 0.106,0.5 -0.177,0.902 -0.616,0.902 l 0.107,0.602 3.425,0 -0.07,-0.422 c 0.105,0.221 0.826,0.621 1.441,0.621 2.23,0 3.654,-2.064 3.18,-4.613 l -0.563,-3.11 c -0.105,-0.5 0.175,-0.9 0.614,-0.9 l -0.104,-0.602 z"/><path inkscape:connector-curvature="0" id="path990" style="fill:#0071b9;fill-opacity:1;fill-rule:nonzero;stroke:none" d="m 161.211,726.3719 -0.665,0 c 0.145,0.861 -0.31,1.584 -1.01,1.584 -0.697,0 -1.415,-0.723 -1.563,-1.584 -0.143,-0.863 -0.714,-4.133 -0.714,-4.133 -0.145,-0.861 0.31,-1.584 1.009,-1.584 l 1.953,0 -0.147,-0.862 -2.101,0 c -2.061,0 -3.38,2.067 -2.94,4.614 0.406,2.346 2.306,4.611 4.665,4.611 0.913,0 1.465,-0.218 1.871,-0.521 l -0.358,-2.125 z"/><path inkscape:connector-curvature="0" id="path994" style="fill:#0071b9;fill-opacity:1;fill-rule:nonzero;stroke:none" d="m 170.0347,726.0105 c 0.278,1.523 -0.744,3.008 -3.466,3.008 -2.512,0 -4.399,-2.266 -4.835,-4.612 -0.467,-2.546 0.936,-4.613 3.138,-4.613 l 3.481,0 0.159,0.862 -3.467,0 c -0.743,0 -1.23,0.722 -1.074,1.584 l 0.138,0.722 1.367,0 c 2.758,0 4.266,1.504 4.559,3.049 m -2.635,0.02 c -0.206,-1.165 -1.022,-2.227 -1.767,-2.227 l -1.367,0 c 0,0 0.296,1.605 0.398,2.207 0.243,1.283 1.04,2.086 1.749,2.086 0.677,0 1.25,-0.682 0.987,-2.066"/><path inkscape:connector-curvature="0" id="path998" style="fill:#0071b9;fill-opacity:1;fill-rule:nonzero;stroke:none" d="m 94.8042,732.7117 c 0.905,0.002 1.05,-0.402 0.855,-0.883 -0.159,-0.379 -6.05,-12.035 -6.05,-12.035 l 3.203,0 c 0,0 2.408,4.774 2.65,5.295 0.279,0.603 0.602,0.974 1.696,0.977 l 0.524,-6.272 4.127,0 -0.056,0.6 c -0.434,0 -0.812,0.382 -0.86,0.884 l -1.113,12.036 -5.035,0 0.059,-0.602 z m 0.029,-5.67 1.939,3.813 0.302,-3.813 -2.241,0 z"/><path sodipodi:nodetypes="cccccccccccccccccccc" inkscape:connector-curvature="0" id="path1002" style="fill:#fbba00;fill-opacity:1;fill-rule:nonzero;stroke:none;stroke-opacity:1" d="m 43.8101,737.9051 c -0.185,-0.053 -0.29,-0.186 -0.382,-0.363 -0.278,-0.553 0.093,-1.68 0.268,-2.139 3.281,-8.191 10.454,-10.717 13.354,-11.418 -7.561,-3.984 -18.52,-4.361 -18.636,-4.365 -1.736,0.078 -3.153,-0.6 -3.208,-0.625 -0.591,-0.266 -0.675,-0.873 -0.566,-1.315 0.194,-0.789 1.275,-1.093 1.489,-1.146 2.392,-0.674 9.584,0.449 9.891,0.498 11.06,1.525 18.644,6.363 18.721,6.412 12.498,6.674 19.862,19.934 19.935,20.066 2.194,3.862 2.334,4.463 2.234,4.727 -0.003,0.217 -0.054,0.426 -0.194,0.611 -0.616,0.813 -2.479,0.996 -2.847,1.024 -2.309,0.246 -3.036,-1.061 -3.065,-1.115 -0.01,-0.02 -0.668,-1.405 -0.668,-1.405 -5.24064,-8.42503 -16.048001,-28.65223 -27.253,-16.277 -1.902,2.656 -3.172,5.533 -3.183,5.564 -0.343,0.813 -0.729,1.225 -0.797,1.282 -3.254,1.16 -5.019,0.037 -5.093,-0.016"/><path inkscape:connector-curvature="0" id="path1006" style="fill:#0071b9;fill-opacity:1;fill-rule:nonzero;stroke:none" d="m 68.3545,742.2625 c 2.011,-2.012 1.368,-5.898 -1.428,-8.686 -2.797,-2.783 -6.696,-3.41 -8.704,-1.398 -2.007,2.012 -1.365,5.9 1.432,8.686 2.797,2.785 6.693,3.41 8.7,1.398"/><path inkscape:connector-curvature="0" id="path1010" style="fill:#0071b9;fill-opacity:1;fill-rule:nonzero;stroke:none" d="m 31.4693,726.3836 c 0.195,0.191 0.376,0.49 0.456,0.838 0.116,0.514 -0.082,0.875 -0.482,0.965 -0.359,0.082 -0.619,-0.08 -0.935,-0.561 -0.374,-0.584 -0.799,-0.902 -1.342,-0.777 -0.61,0.135 -0.947,0.74 -0.775,1.498 0.087,0.394 0.246,0.668 0.383,0.81 l 0.379,-0.23 c -0.104,-0.105 -0.272,-0.34 -0.35,-0.691 -0.122,-0.534 0.152,-0.807 0.418,-0.868 0.365,-0.082 0.598,0.116 0.928,0.606 0.407,0.601 0.796,0.859 1.369,0.73 0.602,-0.135 1.029,-0.693 0.821,-1.613 -0.084,-0.375 -0.292,-0.76 -0.477,-0.938 l -0.393,0.231 z"/><path inkscape:connector-curvature="0" id="path1014" style="fill:#0071b9;fill-opacity:1;fill-rule:nonzero;stroke:none" d="m 31.7774,732.1101 -0.492,-1.465 1.368,-0.459 0.55,1.641 0.411,-0.137 -0.717,-2.137 -3.793,1.272 0.689,2.051 0.411,-0.137 -0.524,-1.557 1.199,-0.402 0.493,1.467 0.405,-0.137 z"/><path inkscape:connector-curvature="0" id="path1018" style="fill:#0071b9;fill-opacity:1;fill-rule:nonzero;stroke:none" d="m 28.8833,733.0066 0.41,-0.943 -0.135,-0.397 -0.479,0.752 0.204,0.588 z"/><path inkscape:connector-curvature="0" id="path1022" style="fill:#0071b9;fill-opacity:1;fill-rule:nonzero;stroke:none" d="m 35.0796,735.2957 c 0.006,-0.207 -0.067,-0.596 -0.273,-1.037 -0.473,-1.022 -1.472,-1.486 -2.67,-0.934 -1.14,0.53 -1.548,1.653 -1.027,2.776 0.205,0.447 0.438,0.691 0.56,0.785 l 0.327,-0.295 c -0.164,-0.131 -0.346,-0.356 -0.486,-0.656 -0.396,-0.85 -0.114,-1.666 0.841,-2.108 0.892,-0.412 1.696,-0.164 2.102,0.713 0.134,0.291 0.211,0.608 0.205,0.838 l 0.421,-0.082 z"/><path inkscape:connector-curvature="0" id="path1026" style="fill:#0071b9;fill-opacity:1;fill-rule:nonzero;stroke:none" d="m 32.5367,738.657 2.019,-1.252 c 0.754,-0.469 1.287,-0.332 1.569,0.121 0.31,0.498 0.182,1.033 -0.566,1.496 l -2.016,1.25 0.276,0.444 1.987,-1.233 c 1.043,-0.648 1.125,-1.459 0.667,-2.193 -0.431,-0.696 -1.15,-0.975 -2.208,-0.32 l -2.003,1.244 0.275,0.443 z"/><path inkscape:connector-curvature="0" id="path1030" style="fill:#0071b9;fill-opacity:1;fill-rule:nonzero;stroke:none" d="m 34.8633,742.0574 c 0.122,0.238 0.33,0.557 0.547,0.828 0.346,0.434 0.654,0.649 0.986,0.701 0.259,0.047 0.544,-0.031 0.791,-0.226 0.408,-0.324 0.469,-0.809 0.323,-1.221 l 0.014,-0.012 c 0.271,0.17 0.608,0.135 0.998,-0.043 0.518,-0.248 0.879,-0.412 1.046,-0.449 l -0.332,-0.418 c -0.13,0.02 -0.454,0.166 -0.91,0.393 -0.506,0.252 -0.804,0.209 -1.113,-0.145 l -0.302,-0.379 1.355,-1.08 -0.324,-0.404 -3.079,2.455 z m 1.743,-0.729 0.33,0.413 c 0.342,0.431 0.322,0.892 -0.034,1.177 -0.403,0.323 -0.812,0.17 -1.154,-0.255 -0.155,-0.194 -0.244,-0.344 -0.28,-0.426 l 1.138,-0.909 z"/><path inkscape:connector-curvature="0" id="path1034" style="fill:#0071b9;fill-opacity:1;fill-rule:nonzero;stroke:none" d="m 37.7393,745.5105 2.908,-2.746 -0.359,-0.379 -2.907,2.746 0.358,0.379 z"/><path inkscape:connector-curvature="0" id="path1038" style="fill:#0071b9;fill-opacity:1;fill-rule:nonzero;stroke:none" d="m 39.7818,746.8875 -0.905,-0.812 -0.293,0.326 2.202,1.976 0.291,-0.326 -0.906,-0.816 2.383,-2.645 -0.391,-0.348 -2.381,2.645 z"/><path inkscape:connector-curvature="0" id="path1042" style="fill:#0071b9;fill-opacity:1;fill-rule:nonzero;stroke:none" d="m 44.6543,748.6258 -1.248,-0.914 0.854,-1.162 1.397,1.025 0.256,-0.349 -1.819,-1.332 -2.366,3.22 1.748,1.28 0.254,-0.35 -1.326,-0.971 0.748,-1.017 1.25,0.914 0.252,-0.344 z"/><path inkscape:connector-curvature="0" id="path1046" style="fill:#0071b9;fill-opacity:1;fill-rule:nonzero;stroke:none" d="m 42.8121,750.9871 -0.207,-1.01 -0.337,-0.246 0.038,0.889 0.506,0.367 z"/><path inkscape:connector-curvature="0" id="path1050" style="fill:#0071b9;fill-opacity:1;fill-rule:nonzero;stroke:none" d="m 48.0005,749.2429 c 0.276,-0.023 0.623,0.027 0.94,0.192 0.469,0.242 0.615,0.626 0.426,0.99 -0.168,0.326 -0.461,0.422 -1.031,0.353 -0.691,-0.09 -1.207,0.03 -1.463,0.526 -0.286,0.552 -0.041,1.199 0.647,1.558 0.357,0.184 0.67,0.239 0.871,0.229 l 0.066,-0.44 c -0.145,0.012 -0.434,-0.011 -0.755,-0.177 -0.485,-0.252 -0.519,-0.637 -0.394,-0.879 0.173,-0.33 0.474,-0.383 1.063,-0.317 0.724,0.073 1.171,-0.056 1.442,-0.578 0.285,-0.545 0.131,-1.232 -0.707,-1.666 -0.341,-0.176 -0.768,-0.266 -1.024,-0.238 l -0.081,0.447 z"/><path inkscape:connector-curvature="0" id="path1054" style="fill:#0071b9;fill-opacity:1;fill-rule:nonzero;stroke:none" d="m 52.751,750.6726 c -0.994,-0.375 -1.973,0.131 -2.402,1.264 -0.447,1.183 -0.011,2.236 0.989,2.615 1.028,0.387 1.984,-0.145 2.405,-1.254 0.484,-1.281 -0.037,-2.264 -0.987,-2.621 l -0.005,-0.004 z m -0.128,0.402 c 0.766,0.289 0.931,1.157 0.61,2.006 -0.279,0.742 -0.963,1.371 -1.769,1.067 -0.805,-0.303 -0.92,-1.202 -0.614,-2.01 0.299,-0.789 1.007,-1.352 1.767,-1.065 l 0.006,0.002 z"/><path inkscape:connector-curvature="0" id="path1058" style="fill:#0071b9;fill-opacity:1;fill-rule:nonzero;stroke:none" d="m 58.1138,752.4246 c -0.159,-0.137 -0.511,-0.318 -0.985,-0.432 -1.094,-0.263 -2.081,0.231 -2.39,1.51 -0.295,1.221 0.331,2.238 1.539,2.528 0.477,0.115 0.814,0.085 0.965,0.05 l -0.031,-0.441 c -0.205,0.049 -0.494,0.053 -0.817,-0.024 -0.911,-0.22 -1.376,-0.949 -1.13,-1.968 0.232,-0.957 0.926,-1.428 1.867,-1.205 0.311,0.076 0.607,0.214 0.784,0.361 l 0.198,-0.379 z"/><path inkscape:connector-curvature="0" id="path1062" style="fill:#0071b9;fill-opacity:1;fill-rule:nonzero;stroke:none" d="m 59.065,756.4734 0.602,-3.949 -0.518,-0.078 -0.599,3.949 0.515,0.078 z"/><path inkscape:connector-curvature="0" id="path1066" style="fill:#0071b9;fill-opacity:1;fill-rule:nonzero;stroke:none" d="m 61.4966,754.0008 -0.338,-1.279 -0.534,-0.036 1.109,4.073 0.623,0.039 1.611,-3.904 -0.55,-0.034 -0.504,1.227 -1.417,-0.086 z m 1.283,0.482 -0.467,1.123 c -0.101,0.256 -0.173,0.489 -0.247,0.717 l -0.019,-0.002 c -0.039,-0.234 -0.089,-0.486 -0.151,-0.734 l -0.318,-1.178 1.202,0.074 z"/><path inkscape:connector-curvature="0" id="path1070" style="fill:#0071b9;fill-opacity:1;fill-rule:nonzero;stroke:none" d="m 65.0826,756.8504 0.52,-0.023 -0.167,-3.559 1.709,-0.082 -0.02,-0.43 -2.228,0.104 0.186,3.99 z"/><path inkscape:connector-curvature="0" id="path1074" style="fill:#0071b9;fill-opacity:1;fill-rule:nonzero;stroke:none" d="m 70.3672,754.2097 -1.531,0.223 -0.208,-1.426 1.717,-0.25 -0.063,-0.428 -2.232,0.324 0.573,3.953 2.143,-0.312 -0.062,-0.428 -1.626,0.239 -0.181,-1.25 1.532,-0.223 -0.062,-0.422 z"/></g></g></svg>